<svg width="1440" height="217" viewBox="0 0 1440 217" fill="none" xmlns="http://www.w3.org/2000/svg">
<g clip-path="url(#clip0_1_2)">
<rect width="1440" height="217" fill="white"/>
<rect width="1440" height="217" fill="#D2E3ED"/>
<path d="M1409 130C1464.23 130 1509 85.2285 1509 30C1509 -25.2285 1464.23 -70 1409 -70C1353.77 -70 1309 -25.2285 1309 30C1309 85.2285 1353.77 130 1409 130Z" stroke="#73CDD6" stroke-width="10" stroke-miterlimit="10"/>
<g filter="url(#filter0_i_1_2)">
<path d="M719.5 96.9L817 -72L622 -72L719.5 96.9Z" fill="#DE7727"/>
</g>
<g clip-path="url(#clip1_1_2)" filter="url(#filter1_i_1_2)">
<path d="M99 287C137.66 287 169 255.66 169 217C169 178.34 137.66 147 99 147C60.3401 147 29 178.34 29 217C29 255.66 60.3401 287 99 287Z" stroke="#73CDD6" stroke-width="10" stroke-miterlimit="10"/>
<path d="M148.2 166.3L49.2 265.3C21.9 238 21.9 193.6 49.2 166.3C76.5 139 120.9 138.9 148.2 166.3Z" fill="#73CDD6"/>
</g>
<g filter="url(#filter2_f_1_2)">
<path d="M976.5 213C978.985 213 981 210.985 981 208.5C981 206.015 978.985 204 976.5 204C974.015 204 972 206.015 972 208.5C972 210.985 974.015 213 976.5 213Z" stroke="#0F7DC2" stroke-miterlimit="10"/>
<path d="M995 213C997.485 213 999.5 210.985 999.5 208.5C999.5 206.015 997.485 204 995 204C992.515 204 990.5 206.015 990.5 208.5C990.5 210.985 992.515 213 995 213Z" stroke="#0F7DC2" stroke-miterlimit="10"/>
<path d="M1013.5 213C1015.99 213 1018 210.985 1018 208.5C1018 206.015 1015.99 204 1013.5 204C1011.01 204 1009 206.015 1009 208.5C1009 210.985 1011.01 213 1013.5 213Z" stroke="#0F7DC2" stroke-miterlimit="10"/>
<path d="M1032 213C1034.49 213 1036.5 210.985 1036.5 208.5C1036.5 206.015 1034.49 204 1032 204C1029.51 204 1027.5 206.015 1027.5 208.5C1027.5 210.985 1029.51 213 1032 213Z" stroke="#0F7DC2" stroke-miterlimit="10"/>
<path d="M1050.5 213C1052.99 213 1055 210.985 1055 208.5C1055 206.015 1052.99 204 1050.5 204C1048.01 204 1046 206.015 1046 208.5C1046 210.985 1048.01 213 1050.5 213Z" stroke="#0F7DC2" stroke-miterlimit="10"/>
<path d="M1069 213C1071.49 213 1073.5 210.985 1073.5 208.5C1073.5 206.015 1071.49 204 1069 204C1066.51 204 1064.5 206.015 1064.5 208.5C1064.5 210.985 1066.51 213 1069 213Z" stroke="#0F7DC2" stroke-miterlimit="10"/>
<path d="M1087.5 213C1089.99 213 1092 210.985 1092 208.5C1092 206.015 1089.99 204 1087.5 204C1085.01 204 1083 206.015 1083 208.5C1083 210.985 1085.01 213 1087.5 213Z" stroke="#0F7DC2" stroke-miterlimit="10"/>
<path d="M1106 213C1108.49 213 1110.5 210.985 1110.5 208.5C1110.5 206.015 1108.49 204 1106 204C1103.51 204 1101.5 206.015 1101.5 208.5C1101.5 210.985 1103.51 213 1106 213Z" stroke="#0F7DC2" stroke-miterlimit="10"/>
<path d="M1124.5 213C1126.99 213 1129 210.985 1129 208.5C1129 206.015 1126.99 204 1124.5 204C1122.01 204 1120 206.015 1120 208.5C1120 210.985 1122.01 213 1124.5 213Z" stroke="#0F7DC2" stroke-miterlimit="10"/>
<path d="M1143 213C1145.49 213 1147.5 210.985 1147.5 208.5C1147.5 206.015 1145.49 204 1143 204C1140.51 204 1138.5 206.015 1138.5 208.5C1138.5 210.985 1140.51 213 1143 213Z" stroke="#0F7DC2" stroke-miterlimit="10"/>
<path d="M976.5 197C978.985 197 981 194.985 981 192.5C981 190.015 978.985 188 976.5 188C974.015 188 972 190.015 972 192.5C972 194.985 974.015 197 976.5 197Z" stroke="#0F7DC2" stroke-miterlimit="10"/>
<path d="M995 197C997.485 197 999.5 194.985 999.5 192.5C999.5 190.015 997.485 188 995 188C992.515 188 990.5 190.015 990.5 192.5C990.5 194.985 992.515 197 995 197Z" stroke="#0F7DC2" stroke-miterlimit="10"/>
<path d="M1013.5 197C1015.99 197 1018 194.985 1018 192.5C1018 190.015 1015.99 188 1013.5 188C1011.01 188 1009 190.015 1009 192.5C1009 194.985 1011.01 197 1013.5 197Z" stroke="#0F7DC2" stroke-miterlimit="10"/>
<path d="M1032 197C1034.49 197 1036.5 194.985 1036.5 192.5C1036.5 190.015 1034.49 188 1032 188C1029.51 188 1027.5 190.015 1027.5 192.5C1027.5 194.985 1029.51 197 1032 197Z" stroke="#0F7DC2" stroke-miterlimit="10"/>
<path d="M1050.5 197C1052.99 197 1055 194.985 1055 192.5C1055 190.015 1052.99 188 1050.5 188C1048.01 188 1046 190.015 1046 192.5C1046 194.985 1048.01 197 1050.5 197Z" stroke="#0F7DC2" stroke-miterlimit="10"/>
<path d="M1069 197C1071.49 197 1073.5 194.985 1073.5 192.5C1073.5 190.015 1071.49 188 1069 188C1066.51 188 1064.5 190.015 1064.5 192.5C1064.5 194.985 1066.51 197 1069 197Z" stroke="#0F7DC2" stroke-miterlimit="10"/>
<path d="M1087.5 197C1089.99 197 1092 194.985 1092 192.5C1092 190.015 1089.99 188 1087.5 188C1085.01 188 1083 190.015 1083 192.5C1083 194.985 1085.01 197 1087.5 197Z" stroke="#0F7DC2" stroke-miterlimit="10"/>
<path d="M1106 197C1108.49 197 1110.5 194.985 1110.5 192.5C1110.5 190.015 1108.49 188 1106 188C1103.51 188 1101.5 190.015 1101.5 192.5C1101.5 194.985 1103.51 197 1106 197Z" stroke="#0F7DC2" stroke-miterlimit="10"/>
<path d="M1124.5 197C1126.99 197 1129 194.985 1129 192.5C1129 190.015 1126.99 188 1124.5 188C1122.01 188 1120 190.015 1120 192.5C1120 194.985 1122.01 197 1124.5 197Z" stroke="#0F7DC2" stroke-miterlimit="10"/>
<path d="M1143 197C1145.49 197 1147.5 194.985 1147.5 192.5C1147.5 190.015 1145.49 188 1143 188C1140.51 188 1138.5 190.015 1138.5 192.5C1138.5 194.985 1140.51 197 1143 197Z" stroke="#0F7DC2" stroke-miterlimit="10"/>
<path d="M976.5 181C978.985 181 981 178.985 981 176.5C981 174.015 978.985 172 976.5 172C974.015 172 972 174.015 972 176.5C972 178.985 974.015 181 976.5 181Z" stroke="#0F7DC2" stroke-miterlimit="10"/>
<path d="M995 181C997.485 181 999.5 178.985 999.5 176.5C999.5 174.015 997.485 172 995 172C992.515 172 990.5 174.015 990.5 176.5C990.5 178.985 992.515 181 995 181Z" stroke="#0F7DC2" stroke-miterlimit="10"/>
<path d="M1013.5 181C1015.99 181 1018 178.985 1018 176.5C1018 174.015 1015.99 172 1013.5 172C1011.01 172 1009 174.015 1009 176.5C1009 178.985 1011.01 181 1013.5 181Z" stroke="#0F7DC2" stroke-miterlimit="10"/>
<path d="M1032 181C1034.49 181 1036.5 178.985 1036.5 176.5C1036.5 174.015 1034.49 172 1032 172C1029.51 172 1027.5 174.015 1027.5 176.5C1027.5 178.985 1029.51 181 1032 181Z" stroke="#0F7DC2" stroke-miterlimit="10"/>
<path d="M1050.5 181C1052.99 181 1055 178.985 1055 176.5C1055 174.015 1052.99 172 1050.5 172C1048.01 172 1046 174.015 1046 176.5C1046 178.985 1048.01 181 1050.5 181Z" stroke="#0F7DC2" stroke-miterlimit="10"/>
<path d="M1069 181C1071.49 181 1073.5 178.985 1073.5 176.5C1073.5 174.015 1071.49 172 1069 172C1066.51 172 1064.5 174.015 1064.5 176.5C1064.5 178.985 1066.51 181 1069 181Z" stroke="#0F7DC2" stroke-miterlimit="10"/>
<path d="M1087.5 181C1089.99 181 1092 178.985 1092 176.5C1092 174.015 1089.99 172 1087.5 172C1085.01 172 1083 174.015 1083 176.5C1083 178.985 1085.01 181 1087.5 181Z" stroke="#0F7DC2" stroke-miterlimit="10"/>
<path d="M1106 181C1108.49 181 1110.5 178.985 1110.5 176.5C1110.5 174.015 1108.49 172 1106 172C1103.51 172 1101.5 174.015 1101.5 176.5C1101.5 178.985 1103.51 181 1106 181Z" stroke="#0F7DC2" stroke-miterlimit="10"/>
<path d="M1124.5 181C1126.99 181 1129 178.985 1129 176.5C1129 174.015 1126.99 172 1124.5 172C1122.01 172 1120 174.015 1120 176.5C1120 178.985 1122.01 181 1124.5 181Z" stroke="#0F7DC2" stroke-miterlimit="10"/>
<path d="M1143 181C1145.49 181 1147.5 178.985 1147.5 176.5C1147.5 174.015 1145.49 172 1143 172C1140.51 172 1138.5 174.015 1138.5 176.5C1138.5 178.985 1140.51 181 1143 181Z" stroke="#0F7DC2" stroke-miterlimit="10"/>
<path d="M976.5 165C978.985 165 981 162.985 981 160.5C981 158.015 978.985 156 976.5 156C974.015 156 972 158.015 972 160.5C972 162.985 974.015 165 976.5 165Z" stroke="#0F7DC2" stroke-miterlimit="10"/>
<path d="M995 165C997.485 165 999.5 162.985 999.5 160.5C999.5 158.015 997.485 156 995 156C992.515 156 990.5 158.015 990.5 160.5C990.5 162.985 992.515 165 995 165Z" stroke="#0F7DC2" stroke-miterlimit="10"/>
<path d="M1013.5 165C1015.99 165 1018 162.985 1018 160.5C1018 158.015 1015.99 156 1013.5 156C1011.01 156 1009 158.015 1009 160.5C1009 162.985 1011.01 165 1013.5 165Z" stroke="#0F7DC2" stroke-miterlimit="10"/>
<path d="M1032 165C1034.49 165 1036.5 162.985 1036.5 160.5C1036.5 158.015 1034.49 156 1032 156C1029.51 156 1027.5 158.015 1027.5 160.5C1027.5 162.985 1029.51 165 1032 165Z" stroke="#0F7DC2" stroke-miterlimit="10"/>
<path d="M1050.5 165C1052.99 165 1055 162.985 1055 160.5C1055 158.015 1052.99 156 1050.5 156C1048.01 156 1046 158.015 1046 160.5C1046 162.985 1048.01 165 1050.5 165Z" stroke="#0F7DC2" stroke-miterlimit="10"/>
<path d="M1069 165C1071.49 165 1073.5 162.985 1073.5 160.5C1073.5 158.015 1071.49 156 1069 156C1066.51 156 1064.5 158.015 1064.5 160.5C1064.5 162.985 1066.51 165 1069 165Z" stroke="#0F7DC2" stroke-miterlimit="10"/>
<path d="M1087.5 165C1089.99 165 1092 162.985 1092 160.5C1092 158.015 1089.99 156 1087.5 156C1085.01 156 1083 158.015 1083 160.5C1083 162.985 1085.01 165 1087.5 165Z" stroke="#0F7DC2" stroke-miterlimit="10"/>
<path d="M1106 165C1108.49 165 1110.5 162.985 1110.5 160.5C1110.5 158.015 1108.49 156 1106 156C1103.51 156 1101.5 158.015 1101.5 160.5C1101.5 162.985 1103.51 165 1106 165Z" stroke="#0F7DC2" stroke-miterlimit="10"/>
<path d="M1124.5 165C1126.99 165 1129 162.985 1129 160.5C1129 158.015 1126.99 156 1124.5 156C1122.01 156 1120 158.015 1120 160.5C1120 162.985 1122.01 165 1124.5 165Z" stroke="#0F7DC2" stroke-miterlimit="10"/>
<path d="M1143 165C1145.49 165 1147.5 162.985 1147.5 160.5C1147.5 158.015 1145.49 156 1143 156C1140.51 156 1138.5 158.015 1138.5 160.5C1138.5 162.985 1140.51 165 1143 165Z" stroke="#0F7DC2" stroke-miterlimit="10"/>
</g>
</g>
<defs>
<filter id="filter0_i_1_2" x="622" y="-72" width="195" height="172.9" filterUnits="userSpaceOnUse" color-interpolation-filters="sRGB">
<feFlood flood-opacity="0" result="BackgroundImageFix"/>
<feBlend mode="normal" in="SourceGraphic" in2="BackgroundImageFix" result="shape"/>
<feColorMatrix in="SourceAlpha" type="matrix" values="0 0 0 0 0 0 0 0 0 0 0 0 0 0 0 0 0 0 127 0" result="hardAlpha"/>
<feOffset dy="4"/>
<feGaussianBlur stdDeviation="2"/>
<feComposite in2="hardAlpha" operator="arithmetic" k2="-1" k3="1"/>
<feColorMatrix type="matrix" values="0 0 0 0 0 0 0 0 0 0 0 0 0 0 0 0 0 0 0.25 0"/>
<feBlend mode="normal" in2="shape" result="effect1_innerShadow_1_2"/>
</filter>
<filter id="filter1_i_1_2" x="24" y="142" width="150" height="154" filterUnits="userSpaceOnUse" color-interpolation-filters="sRGB">
<feFlood flood-opacity="0" result="BackgroundImageFix"/>
<feBlend mode="normal" in="SourceGraphic" in2="BackgroundImageFix" result="shape"/>
<feColorMatrix in="SourceAlpha" type="matrix" values="0 0 0 0 0 0 0 0 0 0 0 0 0 0 0 0 0 0 127 0" result="hardAlpha"/>
<feOffset dy="4"/>
<feGaussianBlur stdDeviation="2"/>
<feComposite in2="hardAlpha" operator="arithmetic" k2="-1" k3="1"/>
<feColorMatrix type="matrix" values="0 0 0 0 0 0 0 0 0 0 0 0 0 0 0 0 0 0 0.25 0"/>
<feBlend mode="normal" in2="shape" result="effect1_innerShadow_1_2"/>
</filter>
<filter id="filter2_f_1_2" x="970" y="154" width="179.5" height="109" filterUnits="userSpaceOnUse" color-interpolation-filters="sRGB">
<feFlood flood-opacity="0" result="BackgroundImageFix"/>
<feBlend mode="normal" in="SourceGraphic" in2="BackgroundImageFix" result="shape"/>
<feGaussianBlur stdDeviation="0.5" result="effect1_foregroundBlur_1_2"/>
</filter>
<clipPath id="clip0_1_2">
<rect width="1440" height="217" fill="white"/>
</clipPath>
<clipPath id="clip1_1_2">
<rect width="150" height="150" fill="white" transform="translate(24 142)"/>
</clipPath>
</defs>
</svg>
